<?xml version="1.0" encoding="utf-8"?>
<svg id="master-artboard" viewBox="0 0 1400 980" version="1.1" xmlns="http://www.w3.org/2000/svg" x="0px" y="0px" width="1400px" height="980px" enable-background="new 0 0 1400 980">
<path d="M 0 0 H 1400 V 980 H 0 V 0 Z" id="XMLID_880_" fill="#F5FAF4" transform="matrix(1, 0, 0, 1, 0, 0)"/><path d="M 28.299999 19.799999 H 1371.799999 V 960.200024 H 28.299999 V 19.799999 Z" id="XMLID_879_" fill="#ADC6B9" transform="matrix(1, 0, 0, 1, 0, 0)"/><path fill="#F0D0B4" d="M780.5,701.4h-161L395.9,817.1V954h608.2V821.9c0-2.9-1.6-5.7-4.3-7L780.5,701.4z" transform="matrix(1, 0, 0, 1, 0, 0)"/><path d="M 794.9000244140625 813.4000244140625 L 605.0999755859375 813.4000244140625 L 634.7000122070312 529.5 L 765.2999877929688 529.5 Z" fill="#F0D0B4" transform="matrix(1, 0, 0, 1, 0, 0)"/><path fill="#DFB28B" d="M777,642.2l-11.7-112.7H634.7l-8.4,80.3C626.3,609.8,715.2,677.3,777,642.2z" transform="matrix(1, 0, 0, 1, 0, 0)"/><path fill="#77786A" d="M810,708c-6.1,30.9-53,54.9-110,54.9s-104-24-110-54.9l-171.6,92c-19.1,10.2-33,29.5-37.7,52.2&#10;&#9;&#9;&#9;&#9;l-22.6,109.3h683.7l-19.3-93.4c-6.8-32.9-27.8-61.1-57.4-77L810,708z" transform="matrix(1, 0, 0, 1, 0, 0)"/><path fill="#5F5E52" d="M972.5,795.1l-142.4-76.4c0,0-101.2,240.7-243.1,112.8l66.9,97.6c0,0-264.3-77.6-261.7,32.3h649.6&#10;&#9;&#9;&#9;&#9;l-21-101.6C1015.1,832.2,997.4,808.5,972.5,795.1z" transform="matrix(1, 0, 0, 1, 0, 0)"/><path fill="#EBC19C" d="M599,434.3l-14.4-9.4c-5.7-3.7-13.4-1.9-16.9,3.9l-1.1,1.8c-1.9,3.2-2.2,7.2-0.7,10.7l17.8,41.6&#10;&#9;&#9;&#9;&#9;c1.1,2.5,2.9,4.5,5.3,5.8l3.5,1.9c4.8,2.6,10.6,1.6,14.4-2.2l2.5-2.6c2.8-2.9,4-7.1,3-11l-8.2-33.4&#10;&#9;&#9;&#9;&#9;C603.3,438.5,601.5,436,599,434.3z" transform="matrix(1, 0, 0, 1, 0, 0)"/><path fill="#EBC19C" d="M797.1,434.3l14.4-9.4c5.7-3.7,13.4-1.9,16.9,3.9l1.1,1.8c1.9,3.2,2.2,7.2,0.7,10.7l-17.8,41.6&#10;&#9;&#9;&#9;&#9;c-1.1,2.5-2.9,4.5-5.3,5.8l-3.5,1.9c-4.8,2.6-10.6,1.6-14.4-2.2l-2.5-2.6c-2.8-2.9-4-7.1-3-11l8.2-33.4&#10;&#9;&#9;&#9;&#9;C792.7,438.5,794.5,436,797.1,434.3z" transform="matrix(1, 0, 0, 1, 0, 0)"/><path d="M 733.5 288.6000061035156 L 666.5 288.6000061035156 L 596.7999877929688 336.8999938964844 L 588.0999755859375 454.8999938964844 L 603 520 L 666.5 616.0999755859375 L 733.5 616.0999755859375 L 794.2999877929688 518.2999877929688 L 804.5 448.5 L 802.0999755859375 341 Z" fill="#F0D0B4" transform="matrix(1, 0, 0, 1, 0, 0)"/><path d="M 692.4000244140625 517.4000244140625 L 691.2000122070312 525 L 690.7999877929688 518 L 686.5 519.5999755859375 L 686.5 526.5 L 685.2000122070312 520 L 660.7000122070312 529 L 659.7000122070312 537.2999877929688 L 695 528 L 695.2999877929688 516.2999877929688 Z" fill="#8C715D" transform="matrix(1, 0, 0, 1, 0, 0)"/><path d="M 744.9000244140625 523.9000244140625 L 719.7999877929688 518.2000122070312 L 717.5 524.2999877929688 L 717.2000122070312 517.5999755859375 L 713.5999755859375 516.7000122070312 L 712.2999877929688 524.5 L 711.9000244140625 516.2999877929688 L 708.2000122070312 515.5 L 709.7999877929688 527.9000244140625 L 746.7999877929688 533 Z" fill="#8C715D" transform="matrix(1, 0, 0, 1, 0, 0)"/><linearGradient id="SVGID_1_" gradientUnits="userSpaceOnUse" x1="1968.5535" y1="412.8993" x2="1968.5535" y2="553.6892" gradientTransform="matrix(1 0 0 1 -1268.5535 0)">
				<stop offset="1.891892e-02" style="stop-color:#F0D0B4"/>
				<stop offset="1" style="stop-color:#B34A26"/>
			</linearGradient><path d="M 712.7999877929688 484.5 L 709.4000244140625 484.5 L 715.4000244140625 418.8999938964844 L 684.5999755859375 418.8999938964844 L 690.5999755859375 484.5 L 687.2000122070312 484.5 L 683.5 505.20001220703125 L 688.9000244140625 508.79998779296875 L 693.5999755859375 518.2999877929688 L 695 518.2999877929688 L 705 518.2999877929688 L 706.5 518.2999877929688 L 711.7999877929688 508.79998779296875 L 716.5 505.20001220703125 Z" fill="url(#SVGID_1_)" transform="matrix(1, 0, 0, 1, 0, 0)"/><path fill="#9A714A" d="M693.6,518.3h1.4H705h1.4l5.4-9.6l4.7-3.6c-18.2-15.1-33,0-33,0l5.3,3.6L693.6,518.3z" transform="matrix(1, 0, 0, 1, 0, 0)"/><path d="M 709.5 499.700012 A 9.5 8.5 0 0 1 700 508.200012 A 9.5 8.5 0 0 1 690.5 499.700012 A 9.5 8.5 0 0 1 700 491.200012 A 9.5 8.5 0 0 1 709.5 499.700012 Z" opacity="0.5" fill="#EFC7B1" transform="matrix(1, 0, 0, 1, 0, 0)"/><path fill="#D09F76" d="M629.2,415.6c0.2,1.1,0.3,1.7,0.3,1.7C629.4,416.8,629.3,416.2,629.2,415.6z" transform="matrix(1, 0, 0, 1, 0, 0)"/><path fill="#D09F76" d="M803.3,424.5l0.3-16.3l5-75.7c0,0-73.5-48.3-75.2-48.8c-1.6-0.5-86.6,10.4-86.6,10.4l-52.2,36.2&#10;&#9;&#9;&#9;&#9;&#9;l-3.3,80.3l-4.4,9.5c2.9,13.1,2.1,21.9,2.1,21.9l10.8-27.2l-0.5-24.3c1.8,12.6,19.6,23.2,19.6,23.2s-30.9-39.5,7-73.2&#10;&#9;&#9;&#9;&#9;&#9;c3.5-3.1,7.4-5.7,11.6-7.8c-10.6,15.3-15.5,41-8.3,83c-1.8-11.4-9.6-76.6,36.8-90.6c37.6-3.6,79.3,11.8,79.3,11.8&#10;&#9;&#9;&#9;&#9;&#9;c52.2-32.5,49.9,44.2,33.1,47.3c14.8,2.5,20.8-23.3,20.8-23.3l-5.8,25.3L803.3,424.5z" transform="matrix(1, 0, 0, 1, 0, 0)"/><path fill="#8C715D" d="M834.6,329.3c-9.5-45.7-54.7-47.3-54.7-47.3c2.9-25.1-19.9-36.4-49.4-39.8&#10;&#9;&#9;&#9;c-32.7-14.5-84.9-25.3-136.7,16.2c3-2.3,42.5-31.3,104.9-17.1c-28.9,1.2-58,7.3-73.1,14c-37.4,16.5-72,89.3-72,89.3l22.2-14.4&#10;&#9;&#9;&#9;l-22.2,21.4c0,0,22.3,3.6,26,15.9S589,442,589,442l7.5-30.5l-0.5-24.3c1.8,12.6,19.6,23.2,19.6,23.2s-30.9-39.5,7-73.2&#10;&#9;&#9;&#9;c37.9-33.7,119.4-3.7,119.4-3.7c52.2-32.5,49.9,44.2,33.1,47.3c14.8,2.5,20.8-23.3,20.8-23.3l-5.8,25.3l14,47.5&#10;&#9;&#9;&#9;c-1.4-69,30.5-88.2,30.5-88.2l-14.8-27.6L834.6,329.3z" transform="matrix(1, 0, 0, 1, 0, 0)"/><path fill="#72594B" d="M626.2,414c0,0-26-138.6,114.9-81l-19.2-15.7C721.8,317.3,599.9,266,626.2,414z" transform="matrix(1, 0, 0, 1, 0, 0)"/><path fill="#D09F76" d="M662.8,538.5l33.3-8.1c0,0,7.6,3.3,15,0l34.9,3.9L662.8,538.5z" transform="matrix(1, 0, 0, 1, 0, 0)"/><path fill="#DFB28B" d="M680.2,561.9h49.7C705,534.2,680.2,561.9,680.2,561.9z" transform="matrix(1, 0, 0, 1, 0, 0)"/><path fill="#72594B" d="M713.1,418.9l10.4,6.4l14.3,1.4c0,0,27.6-19.1,54.2-1.3C792.1,425.4,765.9,398.4,713.1,418.9z" transform="matrix(1, 0, 0, 1, 0, 0)"/><path fill="#72594B" d="M607.9,423.4c26.4-17.3,53.4,1.8,53.4,1.8l14.1-1.3l10.3-6.2C633.9,397.1,607.9,423.4,607.9,423.4z" transform="matrix(1, 0, 0, 1, 0, 0)"/><path d="M 760.7000122070312 428.5 L 763.5999755859375 435.70001220703125 L 767.5 435.70001220703125 L 761.5999755859375 426.20001220703125 L 732.5999755859375 423.3999938964844 L 724.7000122070312 435.70001220703125 L 729.4000244140625 435.70001220703125 L 733.9000244140625 426.6000061035156 L 738.9000244140625 435.70001220703125 L 755.5 435.70001220703125 Z" fill="#735A4C" transform="matrix(1, 0, 0, 1, 0, 0)"/><path d="M 639.2999877929688 428.5 L 636.4000244140625 435.70001220703125 L 632.5 435.70001220703125 L 638.4000244140625 426.20001220703125 L 667.4000244140625 423.3999938964844 L 675.2999877929688 435.70001220703125 L 670.5999755859375 435.70001220703125 L 666.0999755859375 426.6000061035156 L 661.0999755859375 435.70001220703125 L 644.5 435.70001220703125 Z" fill="#735A4C" transform="matrix(1, 0, 0, 1, 0, 0)"/><path fill="#8C715D" d="M745,567.7c0,0-5.3,24.7-12.7,26c-7.3,1.3-21.3-14-21.3-14h-24c0,0-14.7,14-22.7,14s-14-25.3-14-25.3&#10;&#9;&#9;&#9;l-23.3-12l0,0l39.5,59.8h67.1l38.1-61.2L745,567.7z" transform="matrix(1, 0, 0, 1, 0, 0)"/><path fill="#C0A58D" d="M627,556.4c-5.3-19.3-2-48.7-2-48.7L588.1,454l-0.1,0.9L603,520L627,556.4z" transform="matrix(1, 0, 0, 1, 0, 0)"/><path fill="#C0A58D" d="M771.6,554.9L771.6,554.9l22.7-36.6l10.2-69.8l-0.1-3.1L771.7,499C777.7,511.7,771.6,554.9,771.6,554.9z" transform="matrix(1, 0, 0, 1, 0, 0)"/>
</svg>